<?xml version="1.0" encoding="UTF-8" standalone="no"?>
<!DOCTYPE svg PUBLIC "-//W3C//DTD SVG 1.1//EN" "http://www.w3.org/Graphics/SVG/1.1/DTD/svg11.dtd">
<svg width="100%" height="100%" viewBox="0 0 9830 9830" version="1.1" xmlns="http://www.w3.org/2000/svg" xmlns:xlink="http://www.w3.org/1999/xlink" xml:space="preserve" xmlns:serif="http://www.serif.com/" style="fill-rule:evenodd;clip-rule:evenodd;stroke-linejoin:round;stroke-miterlimit:2;">
    <g transform="matrix(4.16667,0,0,4.16667,1.42109e-12,4.73695e-13)">
        <path d="M1179.5,-0C1830.48,-0 2359,528.516 2359,1179.5C2359,1830.48 1830.48,2359 1179.5,2359C528.516,2359 -0,1830.48 -0,1179.5C-0,528.516 528.516,-0 1179.5,-0ZM1150.16,1509.24C1148.57,1501.97 1144.4,1495.36 1138.26,1490.82C1137.25,1489.36 1135.42,1486.69 1134.93,1485.72C1124.91,1465.68 1140.82,1451.17 1156.56,1437.4C1160.77,1433.71 1166.99,1433.81 1172.97,1433.8C1183.99,1433.77 1195.22,1436.12 1203.88,1438.28C1225.02,1443.57 1250.64,1459 1269.17,1478.69C1279.74,1489.93 1288.28,1502.48 1290.28,1515.82C1292.59,1531.23 1286.28,1541.73 1282.44,1555.81C1279.61,1566.16 1271.07,1575.1 1262.05,1583.3C1249.92,1594.32 1235.98,1603.49 1225.13,1610.27C1219.36,1613.88 1213.5,1618.4 1207.42,1622.75C1203.25,1625.74 1199.27,1629.34 1194.38,1630.04C1114.9,1641.4 1047.41,1612.26 1007.17,1542.74C996.934,1525.07 984.179,1494.82 989.06,1475.29C996.616,1445.08 998.059,1412.17 1018.21,1386.53C1023.14,1380.25 1030.29,1376.14 1037.07,1371.59C1044.69,1366.48 1052.23,1361.25 1058.88,1355.21C1085.7,1330.82 1119.91,1322.54 1155.4,1317.44C1198.02,1311.32 1242.64,1310.05 1282.92,1300.75C1286.43,1299.94 1290.21,1301.34 1293.98,1301.66C1301.96,1302.34 1309.87,1302.25 1317.43,1300.5C1358.46,1291.04 1395.47,1293.23 1434.92,1275.97C1439.61,1273.92 1445.75,1272.69 1451.23,1270.55C1459.62,1267.27 1467.07,1262.65 1472.74,1256.62C1499.02,1228.72 1536.42,1186.33 1550.11,1145.27C1579.38,1057.5 1578.19,947.216 1563.85,856.447C1554.19,795.097 1558.74,730.686 1553.97,668.691C1549.79,614.345 1545.46,555.218 1526.88,504.098C1519.22,482.989 1509.24,458.72 1494.53,441.252C1487.55,432.973 1470.46,419.467 1470.46,419.467C1464.54,414.891 1457.15,412.6 1449.7,413.014C1449.7,413.014 1436.23,413.884 1425.73,417.715C1416.31,421.147 1408.85,426.951 1404.43,433.141C1392.67,449.602 1388.18,471.375 1385.02,490.847C1375.25,551.094 1367.31,615.474 1367.31,676.608C1367.31,688.868 1369.2,699.603 1372.95,711.582C1372.97,712.623 1373.05,719.406 1372.71,723.405C1371.97,732.17 1370.65,741.023 1370.13,746.939C1367.61,775.475 1370.11,804.81 1368.7,833.104C1366.48,877.394 1378.97,939.941 1378.97,986.818C1378.97,1008.16 1372.11,1031.79 1373.8,1052.04C1375.4,1071.2 1373.19,1092.9 1364.91,1110.52C1359.74,1121.55 1351.9,1130.93 1340.05,1134.89L1328.88,1122.61C1321.58,1091.96 1325.45,1020.54 1330.28,989.96C1335.57,956.464 1332.32,908.568 1327.68,874.536C1322.65,837.711 1323.74,792.722 1327.55,755.832C1332.77,705.404 1322.74,653.421 1327.81,602.709C1330.53,575.451 1327.06,548.008 1329.88,520.659C1330.39,515.756 1329.08,506.436 1328.36,501.882C1329.23,498.204 1329.65,494.301 1329.56,490.208C1329.48,486.455 1328.36,479.467 1327.73,475.761C1335.47,452.479 1329.76,421.259 1314.32,394.652C1297.93,366.421 1271.63,345.337 1250.71,341.412C1232.93,338.08 1217.88,342.553 1204.83,351.11C1193.51,358.537 1184.29,370.273 1176.05,377.882C1157.87,394.661 1149.25,427.075 1147.12,450.525C1144.12,483.5 1134.63,515.229 1139.3,548.881C1146.61,601.506 1141.59,654.817 1146.9,707.832C1157,808.912 1157.06,915.064 1157.06,1016.66C1157.06,1050.65 1159.23,1090.07 1148.59,1121.99C1147.17,1126.24 1143.37,1136.68 1141.83,1140.91C1133.92,1143.53 1127.44,1143.99 1122.19,1141.18C1115.54,1137.62 1111.71,1130.33 1108.71,1122.32C1102.66,1106.14 1101.5,1086.2 1104.01,1068.59C1105.14,1060.71 1104.58,1052.48 1103.41,1044.19C1102.84,1040.21 1101.09,1036.26 1102.04,1032.45C1104.53,1022.51 1104.53,1011.37 1103.56,1000.06C1102.95,993.034 1100.51,985.899 1102.55,980.123C1104.92,973.399 1106.94,959.547 1107.46,942.69C1108.48,910.273 1105.48,864.767 1102.04,851.049C1100.48,844.768 1102.45,837.623 1103.16,830.557C1104.18,820.467 1104.5,810.486 1102.87,801.244C1090.49,731.085 1110.36,654.484 1099.28,584.309C1094.98,557.091 1101.19,517.093 1094.22,487.45C1086.74,455.625 1068.82,432.016 1030.37,426.1C1003.88,422.023 988.225,432.169 976.305,446.791C970.707,453.661 966.854,462.672 961.499,469.365C935.172,502.274 933.629,541.291 922.957,578.642C918.163,595.412 911.371,626.595 913.69,643.611C916.364,663.218 913.418,713.078 910.376,735.396C906.96,760.432 913.945,786.878 908.977,811.724C902.156,845.821 910.703,885.087 910.703,919.764C910.703,971.136 908.369,1021.77 908.369,1073.03C908.369,1088.01 908.843,1107.75 906.14,1126.56C904.292,1139.45 901.839,1152.31 893.469,1160.03C889.389,1163.8 884.924,1166.31 880.327,1168.45C868.262,1152.92 864.861,1136.02 862.875,1118.15C860.606,1097.74 860.098,1076.2 856.323,1053.54C849.076,1010.06 851.096,962.328 851.096,918.053C851.096,899.718 855.089,878.853 850.535,860.633C848.022,850.584 850.354,838.845 850.803,827.465C851.336,813.968 850.501,800.805 846.551,788.95C842.119,775.662 842.131,757.855 840.763,741.278C839.457,725.443 837.241,710.419 832.811,698.459C826.845,682.353 817.023,670.552 803.38,663.695C791.264,657.607 774.962,654.83 752.653,660.914C744.312,663.19 730.004,671.97 723.013,678.089C712.861,686.973 705.258,698.989 699.722,712.567C693.952,726.728 690.567,742.805 686.524,755.741C675.989,789.455 674.387,824.516 674.443,859.661C674.493,889.971 675.855,920.322 671.242,949.545C663.589,997.993 673.798,1050.35 666.538,1098.75C649.251,1213.98 662.707,1328.41 681.188,1445.46C692.263,1515.59 682.734,1590.38 713.618,1656.01C725.693,1681.67 758.466,1713.41 778.839,1729.7C852.358,1788.52 976.177,1806.14 1072.69,1785.46C1098.07,1780.02 1118.83,1765.9 1143.23,1759.8C1159.68,1755.68 1175.52,1767.48 1179.4,1781.73C1183.11,1795.31 1175.98,1807.07 1166.66,1816.83C1153.48,1830.63 1134.89,1840.75 1118.73,1845.6C1113.85,1847.06 1109.19,1849.17 1104.65,1851.65C1101.6,1853.32 1099.11,1856.26 1095.56,1856.82C1029.48,1867.25 956.898,1855.32 891.474,1845.26C863.948,1841.02 818.495,1832.62 791.732,1839.66C774.98,1844.07 769.398,1852.89 766.462,1858.63C764.018,1863.4 764.23,1871.33 765.124,1878.33C762.506,1890.36 764.834,1903.8 772.883,1917.06C785.17,1937.3 813.95,1958.26 830.586,1965.16C960.586,2019.06 1117.22,2030.11 1256.48,2006.9C1352.27,1990.94 1450.11,1960.83 1506.72,1878.07C1521.8,1856.05 1529.85,1830.43 1535.58,1803.9C1540.26,1782.24 1543.34,1759.95 1549.61,1739.59C1563.91,1693.05 1575.26,1642.67 1598.7,1600.2C1603.72,1591.09 1607.4,1581.06 1610.89,1570.91C1614.13,1561.55 1616.72,1551.82 1622.8,1544.1C1635.17,1528.35 1651.41,1517.6 1667.43,1506.49C1688.47,1491.92 1709.33,1477 1725.91,1456.26C1741.87,1436.31 1754.15,1391.51 1758.36,1366.26C1771.07,1289.85 1794.42,1201.28 1775.03,1123.81C1771.04,1107.87 1772.94,1088.81 1770.73,1071.07C1768.46,1052.6 1762.91,1035.29 1751.22,1020.65C1739.59,1006.11 1726.28,999.333 1713,997.02C1700.19,994.782 1686.85,996.93 1673.95,1002.98C1646.8,1015.7 1621.42,1048.63 1612.98,1068.91C1593.06,1116.73 1581.71,1166.83 1563.48,1212.39C1547.71,1251.85 1526.48,1287.77 1485.37,1313.46C1448.77,1336.34 1408.27,1341.95 1367.09,1345.3C1319.05,1349.22 1270,1349.97 1223.13,1362.75C1218.73,1363.95 1213.91,1362.75 1209.17,1362.53C1200.96,1362.16 1192.84,1362.4 1185.15,1364.17C1142.73,1373.96 1098.78,1384.62 1071.74,1422.48C1059.59,1439.48 1052.38,1475.42 1061.45,1496.59C1062.44,1498.89 1065.29,1504.06 1066.99,1507.09C1067.4,1511.82 1068.89,1517.08 1072.21,1522.5C1076.68,1529.78 1090.1,1541.35 1093.6,1543.54C1102.99,1549.4 1110.92,1558.59 1120.42,1564.32C1132.62,1571.66 1146.27,1575.66 1163.01,1573.09C1174.59,1571.3 1190.04,1569.09 1200.08,1562.82C1201.22,1562.11 1205.23,1558.41 1208.49,1555.35C1208.58,1555.32 1208.67,1555.29 1208.75,1555.26C1224.86,1549.21 1233.04,1531.23 1227,1515.12C1222.97,1504.39 1215.79,1498.98 1208.07,1496.07C1201.98,1493.77 1194.57,1492.92 1186.19,1495.67C1182.27,1496.96 1172.74,1504.72 1167.25,1509.38C1164.3,1509.82 1157.05,1510.93 1153.53,1511.47C1152.23,1511.67 1151.64,1510.33 1150.74,1509.67C1150.54,1509.53 1150.35,1509.38 1150.16,1509.24ZM1129.09,1909.34C1129.11,1909.73 1129.13,1910.11 1129.15,1910.49C1128.5,1910.5 1127.84,1910.5 1127.17,1910.51C1127.82,1910.14 1128.46,1909.74 1129.09,1909.34ZM889.201,1907.98C889.261,1907.99 889.321,1908 889.38,1908.01C889.448,1909.44 889.386,1910.79 889.236,1912.05C889.313,1910.7 889.301,1909.34 889.201,1907.98ZM1180.12,1551.73C1175.33,1548.76 1171.29,1544.12 1168.62,1537.01C1170.95,1543.22 1175.05,1548.24 1180.12,1551.73Z"/>
    </g>
</svg>
